<svg width="131" height="26" viewBox="0 0 131 26" fill="none" xmlns="http://www.w3.org/2000/svg">
<g clip-path="url(#clip0_2_5)">
<path d="M29.901 26L14.951 0L0.000953674 26H29.901ZM44.9796 24.8164L57.4735 1.18183H52.0695L43.4509 18.3461L34.8324 1.18183H29.4282L41.9221 24.8164H44.9796ZM130.125 1.18183V24.8165H125.651V1.18183H130.125ZM105.221 15.995C105.221 14.1531 105.605 12.533 106.374 11.1349C107.143 9.73685 108.215 8.6605 109.59 7.906C110.965 7.15145 112.573 6.7742 114.414 6.7742C116.045 6.7742 117.513 7.12925 118.818 7.8394C120.122 8.54955 121.16 9.6037 121.928 11.0018C122.697 12.3999 123.093 14.1087 123.117 16.1282V17.1601H109.94C110.033 18.6248 110.464 19.7788 111.233 20.6221C112.026 21.4432 113.086 21.8538 114.414 21.8538C115.253 21.8538 116.021 21.6318 116.72 21.188C117.419 20.7442 117.944 20.145 118.294 19.3904L122.872 19.7233C122.313 21.3877 121.265 22.7192 119.727 23.7179C118.188 24.7165 116.418 25.2159 114.414 25.2159C112.573 25.2159 110.965 24.8386 109.59 24.084C108.215 23.3295 107.143 22.2532 106.374 20.8551C105.605 19.457 105.221 17.837 105.221 15.995ZM118.503 14.3306C118.34 12.8881 117.885 11.834 117.14 11.1683C116.395 10.4803 115.486 10.1363 114.414 10.1363C113.179 10.1363 112.177 10.5024 111.408 11.2348C110.639 11.9672 110.161 12.9991 109.975 14.3306H118.503ZM97.6735 11.1683C98.419 11.7674 98.885 12.5997 99.0715 13.6649L103.686 13.4319C103.522 12.0781 103.045 10.9019 102.253 9.9033C101.46 8.90465 100.435 8.139 99.1765 7.6064C97.9415 7.0516 96.5785 6.7742 95.087 6.7742C93.246 6.7742 91.6385 7.15145 90.2635 7.906C88.8885 8.6605 87.817 9.73685 87.048 11.1349C86.279 12.533 85.8945 14.1531 85.8945 15.995C85.8945 17.837 86.279 19.457 87.048 20.8551C87.817 22.2532 88.8885 23.3295 90.2635 24.084C91.6385 24.8386 93.246 25.2159 95.087 25.2159C96.625 25.2159 98.023 24.9384 99.2815 24.3836C100.54 23.8067 101.565 22.9967 102.357 21.9536C103.15 20.9106 103.627 19.69 103.79 18.2919L99.1415 18.0922C98.9785 19.2683 98.524 20.1782 97.7785 20.8218C97.0325 21.4432 96.1355 21.7539 95.087 21.7539C93.6425 21.7539 92.524 21.2545 91.7315 20.2559C90.9395 19.2572 90.543 17.837 90.543 15.995C90.543 14.1531 90.9395 12.7328 91.7315 11.7341C92.524 10.7355 93.6425 10.2361 95.087 10.2361C96.089 10.2361 96.951 10.5469 97.6735 11.1683ZM74.9775 7.17285H79.1405L79.261 10.5684C79.5565 9.6073 79.9675 8.8609 80.494 8.32925C81.257 7.5583 82.321 7.17285 83.6855 7.17285H85.3855V10.8073H83.651C82.6795 10.8073 81.8815 10.9394 81.257 11.2037C80.6555 11.4681 80.193 11.8866 79.8695 12.4593C79.5685 13.032 79.4185 13.7589 79.4185 14.6399V24.8164H74.9775V7.17285ZM55.774 11.1349C55.005 12.533 54.6205 14.1531 54.6205 15.995C54.6205 17.837 55.005 19.457 55.774 20.8551C56.543 22.2532 57.6145 23.3295 58.9895 24.084C60.3645 24.8386 61.972 25.2159 63.813 25.2159C65.817 25.2159 67.588 24.7165 69.126 23.7179C70.6635 22.7192 71.7125 21.3877 72.2715 19.7233L67.6925 19.3904C67.343 20.145 66.819 20.7442 66.12 21.188C65.421 21.6318 64.652 21.8538 63.813 21.8538C62.485 21.8538 61.4245 21.4432 60.6325 20.6221C59.8635 19.7788 59.4325 18.6248 59.339 17.1601H72.516V16.1282C72.493 14.1087 72.097 12.3999 71.328 11.0018C70.559 9.6037 69.522 8.54955 68.217 7.8394C66.912 7.12925 65.444 6.7742 63.813 6.7742C61.972 6.7742 60.3645 7.15145 58.9895 7.906C57.6145 8.6605 56.543 9.73685 55.774 11.1349ZM66.5395 11.1683C67.285 11.834 67.7395 12.8881 67.9025 14.3306H59.374C59.5605 12.9991 60.038 11.9672 60.807 11.2348C61.576 10.5024 62.578 10.1363 63.813 10.1363C64.885 10.1363 65.7935 10.4803 66.5395 11.1683Z" fill="white"/>
</g>
<defs>
<clipPath id="clip0_2_5">
<rect width="131" height="26" fill="white"/>
</clipPath>
</defs>
</svg>
